<svg width="416" height="448" viewBox="0 0 416 448" fill="none" xmlns="http://www.w3.org/2000/svg">
<path d="M112 144V112C112 86.5392 122.114 62.1212 140.118 44.1178C158.121 26.1143 182.539 16 208 16C233.461 16 257.879 26.1143 275.882 44.1178C293.886 62.1212 304 86.5392 304 112V144M32 144C27.7565 144 23.6869 145.686 20.6863 148.686C17.6857 151.687 16 155.757 16 160V376C16 406.24 41.76 432 72 432H344C374.24 432 400 407.49 400 377.25V160C400 155.757 398.314 151.687 395.314 148.686C392.313 145.686 388.243 144 384 144H32Z" stroke="black" stroke-width="32" stroke-linecap="round" stroke-linejoin="round"/>
</svg>
